<?xml version="1.0" encoding="utf-8"?>
<!-- Generator: Adobe Illustrator 19.2.1, SVG Export Plug-In . SVG Version: 6.00 Build 0)  -->
<svg version="1.1" id="Calque_1" xmlns="http://www.w3.org/2000/svg" xmlns:xlink="http://www.w3.org/1999/xlink" x="0px" y="0px"
	 viewBox="0 0 171.1 149.7" style="enable-background:new 0 0 171.1 149.7;" xml:space="preserve">
<style type="text/css">
	.st0{fill:#FDFBED;}
</style>
<title>speed</title>
<g>
	<path class="st0" d="M106.4,74.4c-8.1-2.5-15.7-1-23,3.3c-0.1-0.2-0.1-0.4-0.1-0.6c-0.4-4.9-2.2-9.5-4.4-13.8
		c-0.2-0.3-0.5-0.6-0.7-0.8c-0.1,0-0.1,0.1-0.2,0.1c0.2,0.4,0.3,0.8,0.5,1.2c1.6,3.9,2.9,7.9,3.1,12.2c0.1,2,0,4.1-0.8,6
		c-1.4,3.4-4.3,4.4-7.4,2.3c-1.9-1.2-3.2-2.9-4.4-4.7c-0.2-0.3-0.4-0.5-0.6-0.8c0.4,1.4,0.8,2.8,1.1,4.2c0.4,1.9,0.6,3.8,0.3,5.8
		c-0.5,3.9-5.5,5.2-7.9,3.3c-1.1-0.9-2.1-1.9-2.9-3c-3.6-5.7-6.6-11.6-8.5-18c-0.7-2.2-1-4.5-0.6-6.9c0.4-2.6,2-4.2,4.5-5
		c2.3-0.8,4.3,0,5.8,1.7c1.1,1.2,2,2.6,3,4c-0.1-0.4-0.2-0.6-0.2-0.9c-0.4-1.9-0.8-3.7-1.1-5.6c-0.1-0.8,0-1.7,0.1-2.5
		c0.3-1.9,1.4-3.1,3.2-3.7c2.8-0.9,5.2-0.3,7.3,1.6c0.6,0.6,1.2,1.3,1.9,2c2.1-5.6,4.1-11.1,6.1-16.5c0.1,0,0.1,0,0.2,0
		c1.8,6.8,3.6,13.5,5.4,20.3c0.2-0.1,0.3-0.1,0.5-0.1c1.2-0.5,1.2-0.5,0.9-1.8C83.8,43.9,80.4,30.3,77,16.7c-0.7-2.9-0.9-5.8,0-8.7
		c0.5-1.7,1.3-3.2,2.6-4.4c3.1-3.1,7.4-3.2,10.5-0.1c2.2,2.1,3.2,4.8,4,7.6c2.9,11.4,5.8,22.9,8.7,34.3c1.6,6.2,3.2,12.3,4.7,18.5
		c0.8,3.3,1.3,6.7,1.8,10c0.1,0.7,0.3,0.8,1,0.9c1.6,0.2,3.1,0.4,4.6,0.9c3.8,1.2,5.7,4,5.9,8c0.1,2.7-0.4,5.3-1.3,7.7
		c-2.7,7-6.6,13.3-12.2,18.4c-0.6,0.5-1.2,1-1.9,1.5c-0.5,0.3-0.6,0.7-0.6,1.2c0.1,2.2,0.1,4.4,0.1,6.5c0,0.3,0,0.7,0,1
		c-14.9,0-29.7,0-44.6,0c0.2-1.9,0.4-3.7,0.7-5.4c0.1-0.8,0-1.4-0.4-2c-5.2-7.8-8.6-16.2-9.9-25.5c-0.5-3.3-0.6-6.6-0.1-10
		c0-0.1,0.1-0.3,0.1-0.6c0.2,0.5,0.4,0.8,0.5,1.1c1.7,3.3,3.2,6.7,5,9.9c0.9,1.7,2.2,3.2,3.6,4.5c2.7,2.6,6.5,2.7,9.5,0.6
		c1.3-0.9,2.1-2.2,2.5-3.8c0.1-0.4,0.2-0.9,0.3-1.4c0.8,0.3,1.6,0.6,2.4,0.8c0.8,0.2,1.7,0.2,2.6,0.3c1.3,3.8,4.6,4.6,8.1,4.9
		c2.4,0.2,4.7-0.1,7-0.8c0.2-0.1,0.5-0.1,0.9-0.2c-3.2,2.8-5.4,5.9-5.6,10.1c-0.1,2.2,0.5,4.3,1.3,5.4c0-1.5-0.3-3.3-0.1-5.1
		c0.3-2.8,1.7-5.1,3.6-7.1c1.5-1.5,3.1-3,4.6-4.6c-1.9-0.8-3.9-0.9-6-0.9c-1.6,0-3.3,0.1-4.9-0.1c-1.1-0.1-2.1-0.4-3.1-0.9
		c-2.2-1-2.9-2.9-2.2-5.2c0.7-2.5,2.4-4.2,4.6-5.4c2.5-1.4,5.3-2.2,8.1-2.6c4.2-0.5,8.4-0.9,12.6-1.3c0.2,0,0.3,0,0.5,0
		C106.4,74.6,106.4,74.5,106.4,74.4z"/>
	<path class="st0" d="M110.7,149.1c-19,0-37.9,0-56.9,0c0-12.2,0-6.6,0-18.8c0.3,0,0.7-0.1,1-0.1c18.3,0,36.6,0,55,0
		c0.7,0,1.1,0.1,1.1,1c0,11.6,0,5.4,0,17C110.7,148.5,110.7,148.7,110.7,149.1z"/>
	<path class="st0" d="M106.8,129c-16.2,0-32.2,0-48.4,0c0-2.5,0-5,0-7.5c0.3,0,0.6,0,0.9,0c15.5,0,30.9,0,46.4,0c0.8,0,1,0.2,1,1
		C106.8,124.6,106.8,126.8,106.8,129z"/>
	<path class="st0" d="M102.2,31.7c-0.3-0.8-0.5-1.4-0.7-2c-2.5-7.7-5-15.4-7.5-23c-0.2-0.5-0.1-0.9,0.3-1.3c1.6-1.7,3.5-3,5.8-3.4
		c3.5-0.6,6.5,1,7.9,4.2c1.1,2.7,1.1,5.4,0.4,8.1c-0.5,2.1-1.3,4.1-2,6.1c-1.2,3.4-2.5,6.8-3.7,10.1
		C102.5,30.8,102.4,31.2,102.2,31.7z"/>
</g>
</svg>
