<?xml version="1.0" encoding="utf-8"?>
<!-- Generator: Adobe Illustrator 19.2.1, SVG Export Plug-In . SVG Version: 6.00 Build 0)  -->
<svg version="1.1" id="Calque_1" xmlns="http://www.w3.org/2000/svg" xmlns:xlink="http://www.w3.org/1999/xlink" x="0px" y="0px"
	 viewBox="0 0 171.1 149.7" style="enable-background:new 0 0 171.1 149.7;" xml:space="preserve">
<style type="text/css">
	.st0{fill:#FDFBED;}
</style>
<title>speed</title>
<g>
	<ellipse class="st0" cx="58.8" cy="52.3" rx="13.7" ry="15.5"/>
	<path class="st0" d="M99,48.5l11.9-11.7C105.1,37.5,100.3,42.3,99,48.5z"/>
	<path class="st0" d="M112.3,67.8c7.6,0,13.7-6.9,13.7-15.5c0-0.8-0.1-1.6-0.2-2.4l-17.6,17.2C109.5,67.5,110.8,67.8,112.3,67.8z"/>
	<path class="st0" d="M114.3,109.9c2.2,0,3.9-1.7,3.9-3.9c0-2.1-1.8-3.9-3.9-3.9h-42l-7.9,7.7H114.3z"/>
	<path class="st0" d="M145.8,30.3c-0.3-0.4-0.6-0.7-0.9-1.1c-0.3-0.4-0.6-0.7-0.9-1.1c-3.1-3.6-6.5-6.9-10.2-9.9
		c-0.4-0.3-0.7-0.6-1.1-0.9c-0.4-0.3-0.7-0.6-1.1-0.8C118.9,6.9,102.9,1.2,85.6,1.2C43.7,1.2,9.7,34.5,9.7,75.4
		c0,17,5.9,32.6,15.7,45.1c0.3,0.4,0.6,0.7,0.9,1.1c0.3,0.4,0.6,0.7,0.9,1.1c3.1,3.6,6.5,6.9,10.2,9.9c0.4,0.3,0.7,0.6,1.1,0.9
		c0.4,0.3,0.7,0.6,1.1,0.8c12.8,9.6,28.8,15.3,46.1,15.3c41.8,0,75.9-33.3,75.9-74.3C161.4,58.5,155.6,42.8,145.8,30.3z M36,114
		c-0.3-0.4-0.6-0.7-0.9-1.1c-0.3-0.4-0.6-0.7-0.8-1.1C26.7,101.6,22.2,89,22.2,75.4c0-34.2,28.4-62,63.4-62
		c13.9,0,26.7,4.4,37.2,11.8c0.4,0.3,0.8,0.5,1.1,0.8c0.4,0.3,0.7,0.6,1.1,0.8L114.7,37L98.6,52.8L36,114z M85.6,137.4
		c-13.9,0-26.7-4.4-37.2-11.8c-0.4-0.3-0.8-0.5-1.1-0.8c-0.4-0.3-0.7-0.6-1.1-0.8l14.3-14l7.9-7.7l37.2-36.4l19.5-19.1l10.1-9.8
		c0.3,0.4,0.6,0.7,0.9,1.1c0.3,0.4,0.6,0.7,0.8,1.1c7.6,10.2,12.1,22.8,12.1,36.4C148.9,109.6,120.5,137.4,85.6,137.4z"/>
</g>
</svg>
