<?xml version="1.0" encoding="utf-8"?>
<!-- Generator: Adobe Illustrator 19.2.1, SVG Export Plug-In . SVG Version: 6.00 Build 0)  -->
<svg version="1.1" id="Calque_1" xmlns="http://www.w3.org/2000/svg" xmlns:xlink="http://www.w3.org/1999/xlink" x="0px" y="0px"
	 viewBox="0 0 171.1 149.7" style="enable-background:new 0 0 171.1 149.7;" xml:space="preserve">
<style type="text/css">
	.st0{fill:#FFFFFF;}
</style>
<title>speed</title>
<g>
	<ellipse class="st0" cx="61.5" cy="54.6" rx="12.3" ry="13.9"/>
	<path class="st0" d="M97.7,51.2l10.7-10.5C103.2,41.3,98.8,45.6,97.7,51.2z"/>
	<path class="st0" d="M109.6,68.6c6.8,0,12.3-6.2,12.3-13.9c0-0.7-0.1-1.4-0.2-2.2l-15.8,15.5C107.1,68.3,108.3,68.6,109.6,68.6z"/>
	<path class="st0" d="M111.4,106.4c2,0,3.5-1.5,3.5-3.5c0-1.9-1.6-3.5-3.5-3.5H73.6l-7.1,6.9L111.4,106.4L111.4,106.4z"/>
	<path class="st0" d="M139.8,34.8c-0.3-0.4-0.5-0.6-0.8-1s-0.5-0.6-0.8-1c-2.8-3.2-5.8-6.2-9.2-8.9c-0.4-0.3-0.6-0.5-1-0.8
		c-0.4-0.3-0.6-0.5-1-0.7c-11.4-8.6-25.8-13.8-41.4-13.8c-37.7,0-68.3,30-68.3,66.8c0,15.3,5.3,29.3,14.1,40.6
		c0.3,0.4,0.5,0.6,0.8,1c0.3,0.4,0.5,0.6,0.8,1c2.8,3.2,5.8,6.2,9.2,8.9c0.4,0.3,0.6,0.5,1,0.8c0.4,0.3,0.6,0.5,1,0.7
		c11.5,8.6,25.9,13.8,41.5,13.8c37.6,0,68.3-30,68.3-66.9C153.8,60.2,148.6,46.1,139.8,34.8z M41,110.1c-0.3-0.4-0.5-0.6-0.8-1
		c-0.3-0.4-0.5-0.6-0.7-1C32.6,99,28.5,87.6,28.5,75.4c0-30.8,25.6-55.8,57.1-55.8c12.5,0,24,4,33.5,10.6c0.4,0.3,0.7,0.4,1,0.7
		c0.4,0.3,0.6,0.5,1,0.7l-9.3,9.2L97.3,55.1L41,110.1z M85.6,131.2c-12.5,0-24-4-33.5-10.6c-0.4-0.3-0.7-0.4-1-0.7
		c-0.4-0.3-0.6-0.5-1-0.7L63,106.5l7.1-6.9l33.5-32.8l17.5-17.2l9.1-8.8c0.3,0.4,0.5,0.6,0.8,1c0.3,0.4,0.5,0.6,0.7,1
		c6.8,9.2,10.9,20.5,10.9,32.8C142.6,106.2,117,131.2,85.6,131.2z"/>
</g>
</svg>
