<?xml version="1.0" encoding="utf-8"?>
<!-- Generator: Adobe Illustrator 19.2.1, SVG Export Plug-In . SVG Version: 6.00 Build 0)  -->
<svg version="1.1" id="Calque_1" xmlns="http://www.w3.org/2000/svg" xmlns:xlink="http://www.w3.org/1999/xlink" x="0px" y="0px"
	 viewBox="0 0 171.1 149.7" style="enable-background:new 0 0 171.1 149.7;" xml:space="preserve">
<style type="text/css">
	.st0{fill:#FEFCEE;}
</style>
<title>speed</title>
<path class="st0" d="M171.1,91.6c-0.4,3-0.8,5.9-1.4,8.9c-5,24.8-24.8,44-49.8,48.3c-32.8,5.6-64.1-15.9-70.6-48.5
	C42.6,67.1,64.2,34.7,97.4,28c0.6-0.1,1.2-0.2,1.8-0.3C132.4,22,164,44.1,170,77c0.5,2.6,0.8,5.3,1.1,7.9V91.6L171.1,91.6z
	 M109.6,42.1c-25.5,0.1-46.1,20.7-46.2,46.2c0.1,25.5,20.9,46.2,46.4,46.1c25,0,45.9-20.9,45.9-45.9C155.8,63,135.1,42.2,109.6,42.1
	z"/>
<path class="st0" d="M0,53.6h50.3c-0.5,1-1.1,1.9-1.5,2.9c-1.6,3.9-3.3,7.8-4.8,11.7c-0.2,0.8-0.9,1.4-1.7,1.3H11.8
	c-0.6,0-1.3-0.2-1.7-0.7L0,53.6z"/>
<path class="st0" d="M0.1,107.1h41.8c1-0.1,2,0.6,2.2,1.6c1.8,4.8,3.8,9.5,5.8,14.3H12c-0.9,0.1-1.8-0.4-2.3-1.2l-8.8-13.2
	L0.1,107.1z"/>
<path class="st0" d="M117.5,16.1V21h-15.9v-4.8c-4.4-0.6-5.4-1.8-5.4-6c0-1.8,0-3.7,0-5.5c-0.1-2.4,1.7-4.4,4.1-4.5
	c0.1,0,0.3,0,0.4,0h17.5c2.8,0,4.5,1.8,4.6,4.6s0,3.7,0,5.5C122.9,14.3,121.8,15.6,117.5,16.1z"/>
<path class="st0" d="M41.1,96.2c-4.9,0-9.8-0.3-14.7,0.1s-6.1-0.8-8-4.2s-4.5-6.9-6.8-10.3l-0.8-1.4H41L41.1,96.2L41.1,96.2z"/>
<path class="st0" d="M158.5,41.4l-12.3-10.1c1.9-2.7,3.9-5.6,6-8.4c1.1-1.6,3.3-1.9,4.9-0.8c0,0,0,0,0,0c2.4,1.6,4.8,3.2,7.1,5
	c1.6,1.1,2,3.2,0.9,4.8C163,35.1,160.7,38.3,158.5,41.4z"/>
<path class="st0" d="M110.1,98.9c-4.8,0.1-9.1-2.9-10.6-7.5c-1.3-4.4,0.3-9.2,4.1-11.8c3.8-2.6,8.8-2.5,12.5,0.2
	c1.1,0.8,2.4,1.5,3.8,1.8l24.6,5.2c1,0.2,2.5,0.2,2.3,1.5s-1.5,1.3-2.4,1.5l-25.6,5.4c-0.9,0.2-1.8,0.6-2.5,1.2
	C114.5,97.8,112.4,98.7,110.1,98.9z"/>
</svg>
