<svg xmlns="http://www.w3.org/2000/svg" xmlns:xlink="http://www.w3.org/1999/xlink" version="1.1" id="MAIL" x="0px" y="0px" width="4000px" height="1319.8px" viewBox="0 0 4000 1319.8" style="enable-background:new 0 0 4000 1319.8;" xml:space="preserve" class="svg replaced-svg">
<style type="text/css">
	.st0{fill:url(#SVGID_1_);}
	.st1{fill:url(#SVGID_2_);}
	.st2{fill:url(#SVGID_3_);}
	.st3{fill:#36008E;}
	.st4{fill:url(#SVGID_4_);}
	.st5{fill:#5B00EC;}
	.st6{fill:#190044;}
	.st7{fill:url(#SVGID_5_);}
	.st8{fill:url(#SVGID_6_);}
	.st9{fill:url(#SVGID_7_);}
	.st10{fill:url(#SVGID_8_);}
	.st11{fill:url(#SVGID_9_);}
	.st12{fill:url(#SVGID_10_);}
	.st13{fill:url(#SVGID_11_);}
	.st14{fill:url(#SVGID_12_);}
	.st15{fill:url(#SVGID_13_);}
	.st16{fill:url(#SVGID_14_);}
	.st17{fill:url(#SVGID_15_);}
	.st18{fill:url(#SVGID_16_);}
	.st19{fill:url(#SVGID_17_);}
	.st20{fill:url(#SVGID_18_);}
	.st21{fill:url(#SVGID_19_);}
	.st22{fill:url(#SVGID_20_);}
	.st23{fill:url(#SVGID_21_);}
	.st24{fill:url(#SVGID_22_);}
	.st25{fill:url(#SVGID_23_);}
	.st26{fill:url(#SVGID_24_);}
	.st27{fill:url(#SVGID_25_);}
	.st28{fill:url(#SVGID_26_);}
	.st29{fill:url(#SVGID_27_);}
	.st30{fill:#54546F;}
</style>
<g>
	<g>
		
			<radialGradient id="SVGID_1_" cx="12077.8154" cy="-11290.8174" r="38.5208" gradientTransform="matrix(1 0 0 -1 0 633.8184)" gradientUnits="userSpaceOnUse">
			<stop offset="0" style="stop-color:#FFFFFF"></stop>
			<stop offset="9.000000e-02" style="stop-color:#DCDCDC"></stop>
			<stop offset="0.28" style="stop-color:#9A9A9A"></stop>
			<stop offset="0.47" style="stop-color:#636363"></stop>
			<stop offset="0.63" style="stop-color:#383838"></stop>
			<stop offset="0.78" style="stop-color:#191919"></stop>
			<stop offset="0.91" style="stop-color:#070707"></stop>
			<stop offset="1" style="stop-color:#000000"></stop>
		</radialGradient>
		<path class="st0" d="M3858.1,864.5c-5.8,14.3-28.8,20.4-51.4,13.7s-36.2-23.5-30.6-37.6c5.6-14.1,28.8-20.4,51.4-13.7    C3850.1,833.5,3863.8,850,3858.1,864.5z"></path>
	</g>
	<g>
		
			<radialGradient id="SVGID_2_" cx="4094.106" cy="571.3636" r="38.34" gradientTransform="matrix(1.06 0.31 0.27 -0.67 -603.1421 -816.2814)" gradientUnits="userSpaceOnUse">
			<stop offset="0" style="stop-color:#FFFFFF"></stop>
			<stop offset="9.000000e-02" style="stop-color:#DCDCDC"></stop>
			<stop offset="0.28" style="stop-color:#9A9A9A"></stop>
			<stop offset="0.47" style="stop-color:#636363"></stop>
			<stop offset="0.63" style="stop-color:#383838"></stop>
			<stop offset="0.78" style="stop-color:#191919"></stop>
			<stop offset="0.91" style="stop-color:#070707"></stop>
			<stop offset="1" style="stop-color:#000000"></stop>
		</radialGradient>
		<path class="st1" d="M3984.8,61.3c-5.6,14.1-28.6,20.3-51.2,13.7c-22.6-6.5-36.2-23.3-30.4-37.4s28.6-20.3,51.2-13.6    C3977,30.7,3990.6,47.2,3984.8,61.3z"></path>
	</g>
	<g>
		
			<radialGradient id="SVGID_3_" cx="3864.2368" cy="602.1699" r="83.1905" gradientTransform="matrix(1.01 0 0 -1 45.5739 633.8184)" gradientUnits="userSpaceOnUse">
			<stop offset="0.48" style="stop-color:#FFFFFF"></stop>
			<stop offset="0.56" style="stop-color:#C2C2C2"></stop>
			<stop offset="0.65" style="stop-color:#888888"></stop>
			<stop offset="0.73" style="stop-color:#575757"></stop>
			<stop offset="0.81" style="stop-color:#313131"></stop>
			<stop offset="0.88" style="stop-color:#161616"></stop>
			<stop offset="0.95" style="stop-color:#060606"></stop>
			<stop offset="1" style="stop-color:#000000"></stop>
		</radialGradient>
		<path class="st2" d="M3935.5,10.5c-4.1,0-8.1,0.4-12.1,1.1c-7.4,1.3-14.4,4.1-20.6,8.1c-5.9,4.4-10.9,10-14.5,16.5    c-4.2,7.2-7,15.1-8.1,23.3c-1.7,8.1-1.7,16.5,0,24.6c3.5,14.2,13.1,26.1,26.2,32.6c7.4,3.7,15.3,6.2,23.5,7.4    c4.5,0.7,9.1,1.1,13.7,1.1c3.7,0.3,7.5,0.3,11.2,0c7.3-1.1,14.4-3.8,20.6-7.8c6.1-4.2,11.2-9.6,15-15.9c4.2-7.2,7-15.1,8.1-23.3    c1.6-8.1,1.6-16.5,0-24.6c-1.7-7.1-4.9-13.8-9.4-19.5c-4.7-5.8-10.5-10.6-17.2-14.1c-7.4-3.8-15.4-6.4-23.7-7.6    C3944.1,11.4,3939.8,10.8,3935.5,10.5z"></path>
	</g>
	<path class="st3" d="M3822.6,722.1c4.3,0,8.6,0.4,12.8,1.1l0,0c7.3,1.1,14.5,3.3,21.2,6.5c1.8-8.9,4.3-22.8,8-42   c10.7-58.8,30.6-168.6,65.6-315.9c13.6-57.7,67.1-287.2,67.1-287.5s0-3.4,1.3-6.1c1.6-8.1,1.6-16.5,0-24.6   c-1.7-7.2-4.9-13.9-9.4-19.7c-4.6-5.8-10.4-10.5-17-13.9c-7.4-3.8-15.3-6.4-23.5-7.6l0,0c-8.1-1.4-16.5-1.4-24.6,0   c-7.3,1.3-14.3,4.1-20.4,8.1c-6.2,4.1-11.4,9.4-15.4,15.7c-4.2,7.2-7,15.1-8.1,23.3v3.4c0,2.4-1.1,8.7-1.1,9.8   c-7.4,88.1-19.5,231.7-24.2,287.4c-12.3,151-27.3,261.5-35.3,320.8c-2.5,19.4-4.5,33.3-5.4,42.3   C3816.9,722.7,3819.8,722.3,3822.6,722.1z"></path>
	<path class="st3" d="M3472.3,853.6c48.3-16.4,92.9-42.2,131.1-76c40.6-36.8,72.6-82,93.9-132.6c23.1-56.6,34.5-117.3,33.5-178.5   c1-61.1-10.3-121.9-33.5-178.5c-21.2-50.5-53.3-95.8-93.9-132.6c-42.1-37.1-91.3-65.2-144.7-82.5c-120.1-37.7-249-37.7-369.1,0   c-7.1,2.4-14.1,4.9-21.2,7.8c-45.2,17.3-86.9,42.6-123.2,74.7c-40.6,36.8-72.7,82-93.9,132.6c-23.1,56.6-34.5,117.3-33.5,178.5   c-1,61.1,10.3,121.9,33.5,178.5c21.2,50.6,53.3,95.8,94,132.6c41.9,37,91.2,64.5,144.7,80.7c59.4,18,121.1,26.9,183.2,26.4   c62.7,0.6,125.2-8.3,185.2-26.6l10.1-3.4L3472.3,853.6z M3445.2,801.7c-12.3,6.7-25,12.4-38.2,17.2   c-42.9,15.2-88.1,22.7-133.6,22.2c-44.8,0.3-89.4-7.2-131.7-22.2c-40.3-14.5-76.9-37.9-106.9-68.5c-31.7-33.6-55.8-73.6-70.5-117.4   c-18-54.2-26.7-111.1-25.5-168.2c-1.2-57.2,7.5-114.1,25.5-168.4c14.9-43.8,39.1-83.9,71.1-117.4c17.9-18.3,38.1-34,60.2-46.8   c14.8-8.6,30.4-15.9,46.5-21.7c42.1-15.1,86.6-22.7,131.3-22.4c45.3-0.4,90.3,7.1,132.9,22.2c40.3,14.6,76.9,38.1,106.9,68.7   c31.9,33.5,56.1,73.6,71.1,117.4c18.1,54.3,26.7,111.2,25.5,168.4c1.2,57.1-7.5,114-25.5,168.2c-14.9,43.8-39.2,83.9-71.1,117.4   c-20,20.5-43,37.8-68.2,51.4H3445.2z"></path>
	<path class="st3" d="M2745.1,625.7c20-50.8,29.8-105.1,28.9-159.7c0.9-54.6-8.9-108.9-28.9-159.7c-18.2-44.9-45.9-85.4-81.2-118.6   c-36.1-33-78.6-58.2-125-73.8c-103.9-33.7-215.7-33.7-319.6,0c-46.3,15.7-88.9,40.8-125,73.8c-35.3,33.2-63,73.7-81.2,118.6   c-20,50.8-29.9,105.1-28.9,159.7c-0.9,54.6,8.9,108.9,28.9,159.7c36.3,91.5,112,161.6,206,190.8c51.5,16.2,105.2,24.2,159.1,23.7   c54.3,0.6,108.4-7.4,160.2-23.7c94-29.1,169.8-99.3,206.2-190.8H2745.1z M2633.5,614.9c-12,38.3-31.8,73.7-58.2,104   c-24.1,26.8-54,47.7-87.5,60.9c-34.6,13.3-71.4,20-108.5,19.7c-37.1,0.4-73.9-6.3-108.5-19.7c-33.5-13.2-63.5-34.1-87.5-60.9   c-26.2-30.3-45.7-65.7-57.5-104c-14.8-48.3-21.8-98.7-20.8-149.2c-1-50.5,6-100.9,20.8-149.2c12-38.3,31.8-73.7,58.2-104   c24-26.8,54-47.7,87.5-60.9c34.6-13.4,71.4-20.1,108.5-19.7c37.1-0.3,73.9,6.4,108.5,19.7c33.5,13.3,63.5,34.1,87.5,60.9   c26.4,30.2,46.2,65.7,58.2,104c14.8,48.3,21.8,98.7,20.8,149.2C2655.8,516.2,2648.5,566.6,2633.5,614.9z"></path>
	<path class="st3" d="M613.3,192.6l29.3-49.4c27.9-47.6,52.3-86.3,65.6-107.1c9.6-13.7,15.2-23.1,23.1-34.4l1.4-1.8h-2   c-19.2,5-39.1,7.6-59,7.6c-19.9,0.1-39.7-2.5-59-7.6h-1.6l0,0C575.1,66.6,476,227.9,417.2,324.4c-27.5,45.4-46.5,78.5-50.1,83.7   H366c-2.5-5.4-23.1-38.5-50.6-83.7c-59-96.2-157-255.4-193.7-324.4l-2.5,1.3C100,6.4,80.2,8.9,60.4,8.7C40.3,8.4,20.4,5.4,1.1,0H0   l0,0c8.1,12.5,14.8,22.8,24.1,36.2C37.6,57,62,95.7,90.4,143.2l28.9,49.7c18.1,32,40.7,68.4,57.3,97.1   c24.1,41.6,52.1,90.4,79.4,138.7l58.8,103.4v36.2c0,48.3-1.1,99.3-2.9,144.7c0,20.6-1.6,57.1-2.5,96c-0.7,45.6-2,95.1-2,119.2   c19.4-5.5,39.4-8.3,59.5-8.3c20.3-0.1,40.5,2.6,60,8c-1.3-24.8-2.4-73.6-3.4-120.6c0-38.7-1.8-75.1-2.5-95.7   c-1.8-44.5-2.7-95.7-2.7-144.7v-34.7V531c18.1-30.7,36.2-64.4,58.1-102.9c28.2-48.3,57.3-99.5,79.6-138.7   C572.6,261.1,594.1,224.8,613.3,192.6z"></path>
	<path class="st3" d="M1947.7,831.9c-2-40.1-4-85.4-5.8-134.4c-1.8-45.6-2.7-91.9-2.7-138V376.2c0-46.1,0-92.4,2.7-137.4   c0-16.6,1.3-33.6,2-51.5c1.1-29.7,2.2-60.6,3.4-90.4c-19.7,5.5-40,8.2-60.4,8.1c-20.4,0.3-40.7-2.3-60.4-7.6l0,0l1.1,17   c2,42.3,3.6,86.3,5.2,124.8c1.8,44.3,2.7,90.4,2.7,136.7v63.3l0,0l-81.4,2.2h-12.7c-36.2,0-72.3,1.1-110.7,1.1   c-38.3,0-75.2,0-110.7-1.1h-12.8l-80.7-1.6l0,0v-63.5c0-46.3,0-92.4,2.7-136.7c1.4-38.9,3.6-83.4,5.6-126.6V97.1   c-19.7,5.6-40.1,8.4-60.6,8.3c-20.5,0.1-41-2.7-60.8-8.1c1.3,29.3,2.5,60.2,3.4,90.4c0,18.1,1.3,34.7,2,51.4   c1.8,45,2.7,90.4,2.7,137.4v182.3c0,46.3,0,92.8-2.7,138c-2,49.9-3.8,93.9-5.8,134.2c19.9-5.5,40.5-8.1,61.1-8   c20.4-0.1,40.7,2.6,60.4,8.1v-1.4c-2.2-44.1-4.2-89-5.8-133.6c-1.6-44.7-2.7-90.4-2.7-137.3v-69.1l94-1.4c36.2,0,72.3,0,110.5,0   s75.1,0,110.5,0l93.1,1.3l0,0v69.3c0,46.5,0,92.6-2.7,137.3c-2.7,44.7-3.8,89.5-5.8,133.6v2.2c39.7-10.8,81.5-10.8,121.2,0H1947.7z   "></path>
	<path class="st3" d="M762.3,616.7L762.3,616.7l15.4-1.8h41.8c24.1,0,69.8,0,92.8,0h1.6c23,0,68.4,0,92.6,0l41.6,1.1h15l0,0   c16.1,40.3,31.1,77.4,44.3,110.7c21.5,54.3,36.2,93,41.1,104.2c39.4-10.7,81-10.7,120.4,0l-11-21.3   c-78.3-150.6-244.1-562.8-295.9-695.2l-6.5-16.8l0,0c-13.4,5.2-27.7,7.7-42.1,7.6c-13.4,0.1-26.6-2.1-39.2-6.5l-3.3-1.3   c-1.4,3.6-3.1,8.3-5.1,13.2c-57,146.5-78.7,196.4-92.4,230.9c-57,142.5-144.7,347.4-205.1,468.4C565,816.2,559,827,557,831   c19.7-5.4,40-8.1,60.4-8c19.6-0.1,39.1,2.4,58.1,7.4h2c4.2-11,19.5-49.4,40.7-102.4C730.8,695.4,746,657.7,762.3,616.7z M781.8,565   c81.6-206.2,124.2-318.5,130.8-343.6v-1.1v1.1c6.3,25.7,49,138.3,130.6,343.6l0,0c-23.9,1.1-107.1,3.3-130.6,3.3   c-23.5,0-106.7-2.2-130.6-3.3H781.8z"></path>
	
		<linearGradient id="SVGID_4_" gradientUnits="userSpaceOnUse" x1="238.3589" y1="-87.1358" x2="505.2919" y2="-87.1358" gradientTransform="matrix(1 0 0 -1 0 633.8184)">
		<stop offset="1.000000e-02" style="stop-color:#5B00EC"></stop>
		<stop offset="2.000000e-02" style="stop-color:#5900E6"></stop>
		<stop offset="8.000000e-02" style="stop-color:#5300D5"></stop>
		<stop offset="0.15" style="stop-color:#4E00CA"></stop>
		<stop offset="0.25" style="stop-color:#4C00C3"></stop>
		<stop offset="0.51" style="stop-color:#4B00C1"></stop>
		<stop offset="0.65" style="stop-color:#4A00BC"></stop>
		<stop offset="0.8" style="stop-color:#4700AE"></stop>
		<stop offset="0.96" style="stop-color:#420098"></stop>
		<stop offset="1" style="stop-color:#400090"></stop>
	</linearGradient>
	<path class="st4" d="M418.1,532.6l-51.5-19.4V884c20.9,13.8,41.1,28.7,60.4,44.7l0,0c-2.2-44.9-4.2-171.1-5.8-217   c-1.6-45.9-2.7-96.8-2.7-144.7v-36.2"></path>
	<path class="st5" d="M1043.7,565.2L1043.7,565.2c-23,1.1-106.5,3.3-130.6,3.3s-108.5-2.2-130.9-3.3l0,0l-59.9,26   c61.5-3.1,316.3-3.3,382,0L1043.7,565.2z"></path>
	<path class="st6" d="M722.3,591.2l40.3,25.3c18.1,0,38.9-1.3,57-1.4c23.9,0,69.1,0,92.8,0h1.6c23.1,0,68.7,0,92.6,0   c18.1,0,38.5,1.1,56.8,1.4l41.1-25.1C1039,587.9,784,588.1,722.3,591.2z"></path>
	<path class="st6" d="M1374.5,462.4l52.4,27.5l0,0l93.5-1.6h110.5h110.5l93.1,1.3l0,0l52.8-27.5   C1776.7,464.6,1483,464.1,1374.5,462.4z"></path>
	<path class="st5" d="M1887.5,462.4l-52.6-22.8l0,0l-93.1,1.8c-36.2,0.7-73.1,1.1-110.7,1.1c-37.6,0-74.5-0.4-110.7-1.1l-93.5-1.8   l0,0l-52.4,22.8C1483,464.1,1776.7,464.6,1887.5,462.4z"></path>
	
		<linearGradient id="SVGID_5_" gradientUnits="userSpaceOnUse" x1="3608.3486" y1="542.9872" x2="3169.7898" y2="49.9931" gradientTransform="matrix(1 0 0 -1 0 633.8184)">
		<stop offset="0" style="stop-color:#5B00EC"></stop>
		<stop offset="2.000000e-02" style="stop-color:#5A00E8"></stop>
		<stop offset="0.14" style="stop-color:#5200D3"></stop>
		<stop offset="0.27" style="stop-color:#4D00C5"></stop>
		<stop offset="0.38" style="stop-color:#4B00C1"></stop>
		<stop offset="0.65" style="stop-color:#400090"></stop>
		<stop offset="1" style="stop-color:#100040"></stop>
	</linearGradient>
	<path class="st7" d="M3697.1,287.9c-21.2-50.5-53.2-95.8-93.9-132.6c-42-37.2-91.3-65.2-144.7-82.5c-120.2-37.8-249.1-37.8-369.3,0   c-7.2,2.4-14.3,5.1-21.2,7.8c-45.2,17.3-87,42.7-123.2,74.9c-40.7,36.7-72.7,82-93.9,132.6c-23.2,56.6-34.5,117.3-33.5,178.5   c-1.1,61.2,10.3,121.9,33.5,178.5c21.2,50.6,53.3,95.9,94,132.6c41.8,37,91.2,64.5,144.7,80.7c59.5,18.2,121.4,27.1,183.6,26.6   c62.8,0.7,125.3-8.3,185.4-26.6l13-4.5c48.5-16.3,93.2-42.2,131.5-76.1c40.7-36.7,72.7-82,93.9-132.6   c23.2-56.6,34.5-117.3,33.5-178.5C3731.7,405.4,3720.3,344.6,3697.1,287.9z M3640.5,645.4c-18.2,47.1-47,89.3-84.1,123.5   c-24.3,22-51.6,40.3-81.2,54.3c-14.6,7.1-29.7,13.1-45.2,18.1c-50.9,16.1-104,24-157.3,23.5c-52.9,0.4-105.5-7.5-155.9-23.5   c-46.9-14.7-90.1-39.4-126.6-72.3c-37.1-34.2-65.9-76.5-84.1-123.5c-21.4-56.6-31.8-116.7-30.6-177.2   c-1.4-60.5,8.9-120.8,30.2-177.4c18.3-47,47-89.3,84.1-123.5c21.6-19.5,45.6-36.1,71.4-49.4c17.4-9.1,35.6-16.8,54.3-23   c102.1-31.3,211.3-31.3,313.4,0c46.9,14.8,90.1,39.4,126.6,72.3c37.1,34.2,65.9,76.5,84.1,123.5c21.8,56.6,32.6,116.8,31.6,177.4   C3672.4,528.7,3662,588.9,3640.5,645.4z"></path>
	
		<linearGradient id="SVGID_6_" gradientUnits="userSpaceOnUse" x1="3557.1206" y1="462.1975" x2="3053.999" y2="-63.7112" gradientTransform="matrix(1 0 0 -1 0 633.8184)">
		<stop offset="0" style="stop-color:#100040"></stop>
		<stop offset="0.5" style="stop-color:#400090"></stop>
		<stop offset="0.74" style="stop-color:#4B00C1"></stop>
		<stop offset="0.83" style="stop-color:#4C00C4"></stop>
		<stop offset="0.9" style="stop-color:#5000CE"></stop>
		<stop offset="0.96" style="stop-color:#5600DE"></stop>
		<stop offset="0.99" style="stop-color:#5B00EC"></stop>
	</linearGradient>
	<path class="st8" d="M3640.5,290.8c-18.2-47-47-89.3-84.1-123.5c-36.5-32.9-79.7-57.6-126.6-72.3c-102.1-31.3-211.3-31.3-313.4,0   c-18.7,6.2-36.8,13.9-54.3,23c-25.8,13.3-49.9,29.9-71.4,49.4c-37.1,34.2-65.8,76.5-84.1,123.5c-21.6,56.6-32.2,116.8-31.1,177.4   c-1.4,60.5,8.9,120.8,30.2,177.4c18.2,47.1,47,89.3,84.1,123.5c36.5,32.9,79.7,57.6,126.6,72.3c50.4,16,103,23.9,155.9,23.5   c53.4,0.5,106.5-7.5,157.3-23.5c15.5-5,30.6-11,45.2-18.1c29.6-14,56.9-32.3,81.2-54.3c37.1-34.2,65.9-76.5,84.1-123.5   c21.6-56.6,32.2-116.8,31.1-177.4C3672.4,407.7,3662,347.4,3640.5,290.8z M3583.9,633c-14.8,43.8-39,83.7-70.9,117.2   c-30,30.5-66.5,54-106.7,68.5c-85.6,29.7-178.8,29.7-264.4,0c-40.3-14.5-76.8-37.9-106.7-68.5c-31.9-33.4-56.1-73.4-70.9-117.2   c-18.1-54.2-26.7-111.1-25.5-168.2c-1.2-57.1,7.4-114,25.5-168.2c14.8-43.8,39-83.8,70.9-117.2c17.9-18.3,38.1-34,60.2-46.8   c14.8-8.6,30.4-15.9,46.5-21.7c85.6-29.7,178.8-29.7,264.4,0c40.3,14.5,76.8,37.9,106.7,68.5c31.9,33.4,56.1,73.4,70.9,117.2   c18.1,54.2,26.7,111.1,25.5,168.2C3610.6,521.9,3602,578.8,3583.9,633z"></path>
	
		<linearGradient id="SVGID_7_" gradientUnits="userSpaceOnUse" x1="2616.8291" y1="443.8926" x2="2192.3767" y2="-47.8356" gradientTransform="matrix(1 0 0 -1 0 633.8184)">
		<stop offset="0" style="stop-color:#100040"></stop>
		<stop offset="0.5" style="stop-color:#400090"></stop>
		<stop offset="0.74" style="stop-color:#4B00C1"></stop>
		<stop offset="0.88" style="stop-color:#4C00C3"></stop>
		<stop offset="0.93" style="stop-color:#4E00CA"></stop>
		<stop offset="0.96" style="stop-color:#5300D5"></stop>
		<stop offset="0.99" style="stop-color:#5900E6"></stop>
		<stop offset="1" style="stop-color:#5B00EC"></stop>
	</linearGradient>
	<path class="st9" d="M2622.3,197.7c-31.1-29.1-68.1-51-108.5-64.4c-88-27.9-182.4-27.9-270.4,0c-83.9,27.2-150.7,91.6-180.8,174.5   c-18.4,50.6-27.2,104.2-26,158.1c-1.2,53.8,7.6,107.5,26,158.1c30.2,83,96.9,147.4,180.8,174.7c88,27.9,182.4,27.9,270.4,0   c84-27.3,150.7-91.7,180.8-174.7c18.4-50.6,27.2-104.2,26-158.1c1.2-54-7.6-107.7-26-158.4C2679.1,265.9,2654.4,228.3,2622.3,197.7   z M2633,614.9c-11.9,38.3-31.6,73.8-58.1,104c-24,26.8-53.9,47.6-87.4,60.8c-34.6,13.4-71.4,20-108.5,19.7   c-37.1,0.4-73.9-6.3-108.5-19.7c-33.5-13.2-63.4-34-87.4-60.8c-26.2-30.3-45.8-65.7-57.5-104c-14.8-48.3-21.8-98.7-20.8-149.2   c-1-50.5,6-100.9,20.8-149.2c11.9-38.3,31.6-73.8,58.1-104c24-26.8,53.9-47.6,87.4-60.8c34.6-13.4,71.4-20.1,108.5-19.7   c37.1-0.3,73.9,6.4,108.5,19.7c33.4,13.2,63.4,34,87.4,60.8c26.4,30.2,46.2,65.6,58.1,104c14.8,48.3,21.8,98.7,20.8,149.2   C2655.2,516.2,2648,566.6,2633,614.9z"></path>
	
		<linearGradient id="SVGID_8_" gradientUnits="userSpaceOnUse" x1="2640.1753" y1="500.0589" x2="2296.2007" y2="62.0428" gradientTransform="matrix(1 0 0 -1 0 633.8184)">
		<stop offset="0" style="stop-color:#5B00EC"></stop>
		<stop offset="2.000000e-02" style="stop-color:#5A00E9"></stop>
		<stop offset="0.12" style="stop-color:#5200D3"></stop>
		<stop offset="0.22" style="stop-color:#4D00C5"></stop>
		<stop offset="0.3" style="stop-color:#4B00C1"></stop>
		<stop offset="0.6" style="stop-color:#400090"></stop>
		<stop offset="1" style="stop-color:#100040"></stop>
	</linearGradient>
	<path class="st10" d="M2745.1,306.2c-18.2-45-45.9-85.4-81.2-118.6c-36-33-78.6-58.2-125-73.8c-103.8-33.7-215.7-33.7-319.6,0   c-46.3,15.6-88.9,40.7-125,73.8c-35.3,33.2-63.1,73.7-81.2,118.6c-20.2,50.8-30,105.2-29.1,159.9c-0.9,54.6,9,108.9,29.1,159.7   c36.3,91.6,112.1,161.8,206.2,191c51.5,16.3,105.3,24.3,159.3,23.7c54.3,0.6,108.4-7.4,160.2-23.7c94.1-29.2,169.9-99.4,206.2-191   c20-50.8,29.9-105.1,28.9-159.7C2775,411.4,2765.2,357,2745.1,306.2z M2694.6,624.1c-30.2,83-96.9,147.4-180.8,174.7   c-88,27.9-182.4,27.9-270.4,0c-84-27.3-150.7-91.7-180.8-174.7c-18.5-50.6-27.3-104.2-26-158.1c-2.1-53.9,6-107.7,23.7-158.6   c30.2-82.9,96.9-147.3,180.8-174.5c88-27.9,182.4-27.9,270.4,0c84.8,26.6,152.5,91.1,183.2,174.5c18.4,50.6,27.2,104.2,26,158.1   C2722,519.5,2713.1,573.3,2694.6,624.1z"></path>
	<path class="st5" d="M733,0c-18.1,15.4-80.1,27.7-80.1,27.7c-14.6-8.1-28.6-17.4-41.8-27.7c19.8,5.5,40.3,8.3,60.9,8.3   C692.6,8.3,713.1,5.5,733,0z"></path>
	
		<linearGradient id="SVGID_9_" gradientUnits="userSpaceOnUse" x1="621.7578" y1="335.9587" x2="517.7696" y2="395.458" gradientTransform="matrix(1 0 0 -1 0 633.8184)">
		<stop offset="0" style="stop-color:#36008E"></stop>
		<stop offset="0.12" style="stop-color:#2D007B"></stop>
		<stop offset="0.33" style="stop-color:#200061"></stop>
		<stop offset="0.54" style="stop-color:#17004F"></stop>
		<stop offset="0.76" style="stop-color:#120044"></stop>
		<stop offset="1" style="stop-color:#100040"></stop>
	</linearGradient>
	<path class="st11" d="M733,0c-16.5,14.5-74.5,26.4-80.1,27.7L366.4,513.2l51.5,19.4l58.6-103.4c26.2-45.9,54.3-93.7,79.8-138.7   c25.5-45,63.7-108.5,86.4-146.7C672,93.9,697,55.9,708.6,37.3C718.3,22.4,725.2,12.1,733,0z"></path>
	
		<linearGradient id="SVGID_10_" gradientUnits="userSpaceOnUse" x1="336.1077" y1="-294.8408" x2="336.1077" y2="120.5692" gradientTransform="matrix(1 0 0 -1 0 633.8184)">
		<stop offset="0" style="stop-color:#36008E"></stop>
		<stop offset="0.23" style="stop-color:#2C0075"></stop>
		<stop offset="0.53" style="stop-color:#22005A"></stop>
		<stop offset="0.8" style="stop-color:#1B004A"></stop>
		<stop offset="1" style="stop-color:#190044"></stop>
	</linearGradient>
	<path class="st12" d="M366.2,884L366.2,884V513.2l-51.5,19.4v35.1c0,47.2-0.9,98.2-2.7,144.7c-1.8,46.5-3.8,172-6,217l0,0   C325.2,913.2,345.3,898,366.2,884z"></path>
	<path class="st6" d="M426.6,928.7c-19.3-16-39.5-30.9-60.4-44.7c-20.8,13.8-40.8,28.7-60,44.7c39.3-10.9,80.9-10.9,120.3,0H426.6z"></path>
	<path class="st5" d="M955.6,97.1L955.6,97.1c-13.4,5.2-27.6,7.7-42,7.6c-13.3,0.1-26.5-2.2-39.1-6.7l-3.4-1.3L914,123L955.6,97.1z"></path>
	
		<linearGradient id="SVGID_11_" gradientUnits="userSpaceOnUse" x1="966.4672" y1="131.0314" x2="1060.5087" y2="167.7437" gradientTransform="matrix(1 0 0 -1 0 633.8184)">
		<stop offset="0" style="stop-color:#36008E"></stop>
		<stop offset="0.23" style="stop-color:#2C0075"></stop>
		<stop offset="0.53" style="stop-color:#22005A"></stop>
		<stop offset="0.8" style="stop-color:#1B004A"></stop>
		<stop offset="1" style="stop-color:#190044"></stop>
	</linearGradient>
	<path class="st13" d="M1104.3,591.2l-60.6-26c-59.3-149.2-122.8-312-130.6-344.3v-97.5L1104.3,591.2z M1185.5,798.6l1.1-1.3l0,0   l0,0l0,0l-82.3-206.2l-41.1,25.1c42.5,107.1,79,197.5,85.5,215.6l0,0C1162.5,822.6,1174.9,811.4,1185.5,798.6z"></path>
	
		<linearGradient id="SVGID_12_" gradientUnits="userSpaceOnUse" x1="906.7258" y1="83.056" x2="727.3237" y2="200.6078" gradientTransform="matrix(1 0 0 -1 0 633.8184)">
		<stop offset="0" style="stop-color:#100040"></stop>
		<stop offset="0.3" style="stop-color:#190053"></stop>
		<stop offset="0.9" style="stop-color:#320085"></stop>
		<stop offset="1" style="stop-color:#36008E"></stop>
	</linearGradient>
	<path class="st14" d="M913.1,123.3v97.5c-8,31.6-72.3,194.6-130.9,343.6l-59.9,26L913.1,123.3z M677.1,831.9   c6.5-18.1,43-108.5,85.5-215.2l-40.3-25.3l-83.7,204.4l0,0C649.5,809.7,662.5,821.9,677.1,831.9z"></path>
	
		<linearGradient id="SVGID_13_" gradientUnits="userSpaceOnUse" x1="1059.4574" y1="151.5416" x2="1197.9875" y2="197.4772" gradientTransform="matrix(1 0 0 -1 0 633.8184)">
		<stop offset="0" style="stop-color:#4B00C1"></stop>
		<stop offset="0.27" style="stop-color:#4A00BC"></stop>
		<stop offset="0.58" style="stop-color:#4700AE"></stop>
		<stop offset="0.91" style="stop-color:#420098"></stop>
		<stop offset="1" style="stop-color:#400090"></stop>
	</linearGradient>
	<path class="st15" d="M1258.7,809.8c-79.4-152.3-247.9-572-296.4-695.5c-2.5-6.5-4.9-12.5-6.7-17l-42.5,26l274.7,672.4   c1.3,0,66.2,28.2,82.1,36.2l0,0L1258.7,809.8z"></path>
	<path class="st6" d="M1269.9,831.9c-16.1-7.6-82.1-36.2-82.1-36.2c-11.2,13.9-24.4,26.1-39.1,36.2c39.6-10.9,81.4-10.9,121,0   H1269.9z"></path>
	
		<linearGradient id="SVGID_14_" gradientUnits="userSpaceOnUse" x1="654.6417" y1="194.1006" x2="784.6721" y2="138.9417" gradientTransform="matrix(1 0 0 -1 0 633.8184)">
		<stop offset="0.25" style="stop-color:#400090"></stop>
		<stop offset="0.53" style="stop-color:#4600A9"></stop>
		<stop offset="0.8" style="stop-color:#4A00BB"></stop>
		<stop offset="1" style="stop-color:#4B00C1"></stop>
	</linearGradient>
	<path class="st16" d="M638.6,795.7L638.6,795.7l274.5-672.4l-42.9-26.2l0,0l-6.7,17c-48.5,123.7-217,542.5-296.4,695.5l-11.2,22.2   C572,824.1,638.6,795.7,638.6,795.7z"></path>
	<path class="st6" d="M555.9,831.9c16.1-7.6,82.8-36.2,82.8-36.2c10.9,13.9,23.8,26.1,38.3,36.2c-19.5-5.5-39.7-8.2-60-8.1   C596.4,823.6,575.8,826.4,555.9,831.9z"></path>
	
		<linearGradient id="SVGID_15_" gradientUnits="userSpaceOnUse" x1="1824.0448" y1="169.1136" x2="1891.5013" y2="169.4753" gradientTransform="matrix(1 0 0 -1 0 633.8184)">
		<stop offset="0" style="stop-color:#36008E"></stop>
		<stop offset="0.22" style="stop-color:#310083"></stop>
		<stop offset="0.6" style="stop-color:#220066"></stop>
		<stop offset="1" style="stop-color:#100040"></stop>
	</linearGradient>
	<path class="st17" d="M1826.6,831.9c2.2-44.9,4.2-91.5,6-135.5s2.7-90.4,2.7-137.3v-68.7l52.8-27.5v333.7L1826.6,831.9z    M1826.6,97.5L1826.6,97.5L1826.6,97.5c2.2,49,4.5,98.2,6.1,141.8c1.6,43.6,2.7,90.4,2.7,136.7v63.3l52.6,22.8V131.7L1826.6,97.5z"></path>
	<path class="st5" d="M1886.8,105.3c20.5,0.1,41-2.7,60.8-8.3l-60,34.5l-60.9-34.5C1846.2,102.5,1866.4,105.3,1886.8,105.3z"></path>
	<path class="st5" d="M1374.5,105.3c-20.7,0.1-41.2-2.6-61.1-8.1l61.1,34.7l61.5-34.9C1415.9,102.6,1395.2,105.4,1374.5,105.3z"></path>
	
		<linearGradient id="SVGID_16_" gradientUnits="userSpaceOnUse" x1="1296.506" y1="169.4888" x2="1384.2177" y2="169.4888" gradientTransform="matrix(1 0 0 -1 0 633.8184)">
		<stop offset="0" style="stop-color:#36008E"></stop>
		<stop offset="0.22" style="stop-color:#310083"></stop>
		<stop offset="0.6" style="stop-color:#220066"></stop>
		<stop offset="1" style="stop-color:#100040"></stop>
	</linearGradient>
	<path class="st18" d="M1322.2,376.2v182.7c0,46.7-0.9,92.7-2.7,138c-1.8,45.2-3.8,90.4-5.8,134.7l60.8-34.9l0,0V131.8l-60.2-34.7   c2.2,46.7,3.6,96.8,5.4,141.6S1322.2,329.5,1322.2,376.2z"></path>
	
		<linearGradient id="SVGID_17_" gradientUnits="userSpaceOnUse" x1="1364.8668" y1="169.6696" x2="1445.5255" y2="169.6696" gradientTransform="matrix(1 0 0 -1 0 633.8184)">
		<stop offset="1.000000e-02" style="stop-color:#5B00EC"></stop>
		<stop offset="2.000000e-02" style="stop-color:#5900E6"></stop>
		<stop offset="8.000000e-02" style="stop-color:#5300D5"></stop>
		<stop offset="0.15" style="stop-color:#4E00CA"></stop>
		<stop offset="0.25" style="stop-color:#4C00C3"></stop>
		<stop offset="0.51" style="stop-color:#4B00C1"></stop>
		<stop offset="0.65" style="stop-color:#4A00BC"></stop>
		<stop offset="0.8" style="stop-color:#4700AE"></stop>
		<stop offset="0.96" style="stop-color:#420098"></stop>
		<stop offset="1" style="stop-color:#400090"></stop>
	</linearGradient>
	<path class="st19" d="M1435.9,96.9c-2.2,48.8-4.5,99.1-6.3,142.5s-2.5,90.4-2.5,136.7v63.3l-52.6,23V131.8L1435.9,96.9z    M1435.9,831.4c-2.2-44.9-4.2-91.5-5.8-135.5s-2.5-90.4-2.5-137.3v-68.7l-53.2-27.5v334.2l0,0L1435.9,831.4z"></path>
	<path class="st6" d="M1374.5,823.2c-20.7-0.1-41.3,2.6-61.3,8.1l61.3-34.7l61.1,35.3C1415.7,826.1,1395.1,823.2,1374.5,823.2z"></path>
	<path class="st6" d="M1887.2,823.2c20.5-0.1,41,2.6,60.8,8.1l-60.4-34.7l-60.9,35.3C1846.3,826.2,1866.7,823.3,1887.2,823.2z"></path>
	
		<linearGradient id="SVGID_18_" gradientUnits="userSpaceOnUse" x1="1802.5212" y1="169.3984" x2="1997.4763" y2="169.3984" gradientTransform="matrix(1 0 0 -1 0 633.8184)">
		<stop offset="1.000000e-02" style="stop-color:#5B00EC"></stop>
		<stop offset="2.000000e-02" style="stop-color:#5900E6"></stop>
		<stop offset="8.000000e-02" style="stop-color:#5300D5"></stop>
		<stop offset="0.15" style="stop-color:#4E00CA"></stop>
		<stop offset="0.25" style="stop-color:#4C00C3"></stop>
		<stop offset="0.51" style="stop-color:#4B00C1"></stop>
		<stop offset="0.65" style="stop-color:#4A00BC"></stop>
		<stop offset="0.8" style="stop-color:#4700AE"></stop>
		<stop offset="0.96" style="stop-color:#420098"></stop>
		<stop offset="1" style="stop-color:#400090"></stop>
	</linearGradient>
	<path class="st20" d="M1947.9,831.9c-2.2-43.8-4.2-89.3-5.8-134.7s-2.7-90.4-2.7-138v-183c0-46.7,0.9-92.5,2.7-137.4   c1.8-44.9,3.4-94.9,5.4-141.8l-60,34.5l0,0v665.2l0,0L1947.9,831.9z"></path>
	
		<linearGradient id="SVGID_19_" gradientUnits="userSpaceOnUse" x1="133.4709" y1="349.4742" x2="224.6188" y2="401.0161" gradientTransform="matrix(1 0 0 -1 0 633.8184)">
		<stop offset="0" style="stop-color:#36008E"></stop>
		<stop offset="0.23" style="stop-color:#2C0075"></stop>
		<stop offset="0.53" style="stop-color:#22005A"></stop>
		<stop offset="0.8" style="stop-color:#1B004A"></stop>
		<stop offset="1" style="stop-color:#190044"></stop>
	</linearGradient>
	<path class="st21" d="M79.9,27.7c0,0-61.9-12.3-79.9-27.7c7.8,12.1,14.5,22.4,24.2,36.2c12.3,18.1,36.2,56.6,65.8,106.5   c22.8,38.9,60.4,101.5,86.4,146.8s54.3,92.8,79.8,138.7c32.9,57.7,52.4,92.4,58.8,103.4l51.5-19.4L79.9,27.7z"></path>
	<path class="st5" d="M0,0c18.1,15.4,79.9,27.7,79.9,27.7c14.7-8.1,28.7-17.4,42-27.7C102,5.6,81.4,8.4,60.8,8.3   C40.2,8.5,19.8,5.7,0,0z"></path>
	<path class="st6" d="M3857.1,730.4l-18.1-32.2l-26.2,25.1c7.5-1.1,15.1-1.1,22.6,0l0,0c7.5,1.1,14.8,3.4,21.7,6.7V730.4z"></path>
	
		<linearGradient id="SVGID_20_" gradientUnits="userSpaceOnUse" x1="3973.0862" y1="579.7793" x2="3834.1943" y2="-79.415" gradientTransform="matrix(1 0 0 -1 0 633.8184)">
		<stop offset="4.000000e-02" style="stop-color:#4B00C1"></stop>
		<stop offset="8.000000e-02" style="stop-color:#4B00C1"></stop>
		<stop offset="0.34" style="stop-color:#400090"></stop>
		<stop offset="0.4" style="stop-color:#3C0089"></stop>
		<stop offset="0.77" style="stop-color:#230057"></stop>
		<stop offset="0.96" style="stop-color:#190044"></stop>
	</linearGradient>
	<path class="st22" d="M3998.6,53.2c-1.6-7.2-4.9-14-9.4-19.9c-4.7-5.8-10.5-10.6-17.2-14.1c-6.6-3.4-13.7-5.9-21-7.2l-112.1,686.3   l18.1,32.2c7.6-36.2,27.3-162.8,73.6-358.6c12.8-54.3,66.9-286.6,67.1-287.5c0.2-0.9,0-3.3,1.3-6.3   C4000.5,69.7,4000.3,61.3,3998.6,53.2z"></path>
	
		<linearGradient id="SVGID_21_" gradientUnits="userSpaceOnUse" x1="3937.7913" y1="586.5344" x2="3805.5908" y2="27.5304" gradientTransform="matrix(1 0 0 -1 0 633.8184)">
		<stop offset="0" style="stop-color:#4B00C1"></stop>
		<stop offset="0.27" style="stop-color:#4A00BC"></stop>
		<stop offset="0.58" style="stop-color:#4700AE"></stop>
		<stop offset="0.91" style="stop-color:#420098"></stop>
		<stop offset="1" style="stop-color:#400090"></stop>
	</linearGradient>
	<path class="st23" d="M3838.9,698.3L3838.9,698.3L3951,11.9h-2.7l0,0c-8.2-1.4-16.6-1.4-24.8,0c-7.4,1.3-14.4,4-20.6,8.1   c-6,4.3-11,9.7-14.6,16.1c-4.2,7.2-7,15.2-8.1,23.5v3.4c0,2.4-1.1,8.7-1.1,9.8c-7.6,88.8-19.5,231.3-24.2,287.4   c-17.5,200.4-38.9,327-42,363.1l0,0L3838.9,698.3z"></path>
	<g>
		
			<radialGradient id="SVGID_22_" cx="3864.2368" cy="602.1699" r="83.1905" gradientTransform="matrix(1.01 0 0 -1 45.5739 633.8184)" gradientUnits="userSpaceOnUse">
			<stop offset="0.48" style="stop-color:#4B00C1"></stop>
			<stop offset="0.49" style="stop-color:#4A00BF"></stop>
			<stop offset="0.69" style="stop-color:#3F00A4"></stop>
			<stop offset="0.86" style="stop-color:#380094"></stop>
			<stop offset="1" style="stop-color:#36008E"></stop>
		</radialGradient>
		<path class="st24" d="M3935.5,10.5c-4.1,0-8.1,0.4-12.1,1.1c-7.4,1.3-14.4,4.1-20.6,8.1c-5.9,4.4-10.9,10-14.5,16.5    c-4.2,7.2-7,15.1-8.1,23.3c-1.7,8.1-1.7,16.5,0,24.6c3.5,14.2,13.1,26.1,26.2,32.6c7.4,3.7,15.3,6.2,23.5,7.4    c4.5,0.7,9.1,1.1,13.7,1.1c3.7,0.3,7.5,0.3,11.2,0c7.3-1.1,14.4-3.8,20.6-7.8c6.1-4.2,11.2-9.6,15-15.9c4.2-7.2,7-15.1,8.1-23.3    c1.6-8.1,1.6-16.5,0-24.6c-1.7-7.1-4.9-13.8-9.4-19.5c-4.7-5.8-10.5-10.6-17.2-14.1c-7.4-3.8-15.4-6.4-23.7-7.6    C3944.1,11.4,3939.8,10.8,3935.5,10.5z"></path>
	</g>
	<g>
		
			<radialGradient id="SVGID_23_" cx="4094.106" cy="571.3636" r="38.34" gradientTransform="matrix(1.06 0.31 0.27 -0.67 -603.1421 -816.2814)" gradientUnits="userSpaceOnUse">
			<stop offset="0" style="stop-color:#5B00EC"></stop>
			<stop offset="1" style="stop-color:#5B00EC"></stop>
		</radialGradient>
		<path class="st25" d="M3984.8,61.3c-5.6,14.1-28.6,20.3-51.2,13.7c-22.6-6.5-36.2-23.3-30.4-37.4s28.6-20.3,51.2-13.6    C3977,30.7,3990.6,47.2,3984.8,61.3z"></path>
	</g>
	
		<radialGradient id="SVGID_24_" cx="3821.157" cy="-200.6185" r="84.2756" gradientTransform="matrix(1 0 0 -1 0 633.8184)" gradientUnits="userSpaceOnUse">
		<stop offset="0.48" style="stop-color:#4B00C1"></stop>
		<stop offset="0.58" style="stop-color:#3C009B"></stop>
		<stop offset="0.71" style="stop-color:#2D0075"></stop>
		<stop offset="0.82" style="stop-color:#22005A"></stop>
		<stop offset="0.92" style="stop-color:#1B004A"></stop>
		<stop offset="1" style="stop-color:#190044"></stop>
	</radialGradient>
	<path class="st26" d="M3808.5,813.8c-4.1,0-8.1,0.4-12.1,1.1c-7.4,1.2-14.5,4-20.8,8.1c-6.2,4.1-11.3,9.6-15.2,15.9   c-4.3,7.2-7.1,15.2-8.3,23.5c-1.7,8.2-1.7,16.7,0,25c3.7,14.7,13.9,26.8,27.7,33.1c7.5,3.7,15.5,6.2,23.7,7.4   c4.5,0.7,9.1,1.1,13.7,1.1c3.7,0.3,7.5,0.3,11.2,0c15.1-2.1,28.4-10.9,36.2-24.1c8.3-14.7,11-31.9,7.6-48.5   c-1.7-7.2-4.9-14-9.4-19.9c-5-5.9-11.1-10.7-18.1-14.1c-7.4-3.9-15.4-6.5-23.7-7.8C3816.8,814.1,3812.7,813.8,3808.5,813.8z"></path>
	<g>
		
			<radialGradient id="SVGID_25_" cx="12077.8154" cy="-11290.8174" r="38.5208" gradientTransform="matrix(1 0 0 -1 0 633.8184)" gradientUnits="userSpaceOnUse">
			<stop offset="0" style="stop-color:#5B00EC"></stop>
			<stop offset="1" style="stop-color:#5B00EC"></stop>
		</radialGradient>
		<path class="st27" d="M3858.1,864.5c-5.8,14.3-28.8,20.4-51.4,13.7s-36.2-23.5-30.6-37.6c5.6-14.1,28.8-20.4,51.4-13.7    C3850.1,833.5,3863.8,850,3858.1,864.5z"></path>
	</g>
	
		<linearGradient id="SVGID_26_" gradientUnits="userSpaceOnUse" x1="460.6168" y1="432.7106" x2="562.6156" y2="288.3931" gradientTransform="matrix(1 0 0 -1 0 633.8184)">
		<stop offset="0" style="stop-color:#4B00C1"></stop>
		<stop offset="0.14" style="stop-color:#4A00BB"></stop>
		<stop offset="0.34" style="stop-color:#4600A9"></stop>
		<stop offset="0.53" style="stop-color:#400090"></stop>
	</linearGradient>
	<path class="st28" d="M611.1,0C556.8,96.6,376,391.5,366.4,408.7v104.5L652.9,27.7C638.3,19.5,624.3,10.3,611.1,0z"></path>
	
		<linearGradient id="SVGID_27_" gradientUnits="userSpaceOnUse" x1="309.0164" y1="417.2497" x2="210.8154" y2="356.6653" gradientTransform="matrix(1 0 0 -1 0 633.8184)">
		<stop offset="0" style="stop-color:#400090"></stop>
		<stop offset="0.19" style="stop-color:#4400A4"></stop>
		<stop offset="0.42" style="stop-color:#4800B4"></stop>
		<stop offset="0.67" style="stop-color:#4A00BE"></stop>
		<stop offset="1" style="stop-color:#4B00C1"></stop>
	</linearGradient>
	<path class="st29" d="M121.9,0C176.1,96.6,357,391.4,366.6,408.5v104.5L79.9,27.7C94.6,19.6,108.6,10.3,121.9,0z"></path>
	<path class="st30" d="M1584.4,1139.3c-8.3,59.9-11.9,119.9-15.9,179.8c-6-1.2-12-1.9-18.1-2c-6.1,0.1-12.1,0.8-18.1,2   c16.6-90.4,29.7-182.1,40.7-273.3c5.3,1.3,10.8,1.9,16.3,2c5.4-0.1,10.7-0.7,15.9-2c28.9,62.9,62.6,133.5,91.5,189.3   c31.3-59,63.8-126.6,92.2-189.3c5.6,1.2,11.3,1.9,17,2c5.6-0.1,11.2-0.7,16.6-2c10.3,90.4,24.2,217,34,273.3   c-10.6-1.2-21.3-1.9-32-2c-11,0.1-22,0.7-32.9,2c-2.7-54.3-9.6-122.4-15.9-183.7l0,0c-29.7,61.3-59,122.4-87.5,183.7   c-4.9-1-10.1-1-15,0c-28-59.9-56.6-119.9-86.3-179.8H1584.4z"></path>
	<path class="st30" d="M2128.2,1319.1c-12.7,0-23.7-2-34.9-2s-22.6,1.3-33.6,2c-8.3-26.9-18.1-54.3-27.3-81.2c-17,0-33.6,0-50.6,0   c-13.9,0-27.3,0-41.2,0c-10.5,26.6-19.5,53.7-26.9,81.2c-6-1-12-1.7-18.1-2c-6.6,0.3-13.2,1-19.7,2c19.4-43.9,78.9-185,112.8-275.3   c9.8,2.6,20.2,2.6,30,0C2051.7,1134.1,2097.8,1254.5,2128.2,1319.1z M2023.3,1214.6c-11.4-32-22.6-63.3-35.3-94.2   c-13.4,30.9-25.7,62.2-37.3,94.2H2023.3z"></path>
	<path class="st30" d="M2170.2,1155.6c0-44.3,0-74.9-3.1-109.8c8.7,0,19.4,2,32.6,2c13.2,0,23.7-1.3,32.6-2   c-2.4,34.9-3.3,65.3-3.3,109.8v54.3c0,44.3,0,74.9,3.3,109.8c-8.7,0-19.4-2-32.6-2c-13.2,0-23.7,1.3-32.6,2   c2.4-34.9,3.1-65.3,3.1-109.8V1155.6z"></path>
	<path class="st30" d="M2300.8,1155.6c0-44.3,0-74.9-3.3-109.8c8.7,0,19.4,2,32.6,2s23.7-1.3,32.6-2c-2.4,34.9-3.3,65.3-3.3,109.8   v54.3c0,29.3,0,59.3,0,79.9c30.2,0.1,60.4-1.6,90.4-5.1c-1.1,6-1.6,12-1.6,18.1c0,5.7,0.5,11.4,1.6,17c-14.3,0-32.9-2-69.3-2   c-64.6,0-75.2,1.3-83.9,2c2.4-34.9,3.3-65.3,3.3-109.8L2300.8,1155.6z"></path>
</g>
</svg>